<?xml version="1.0" standalone="no"?>
<!DOCTYPE svg PUBLIC "-//W3C//DTD SVG 20010904//EN"
 "http://www.w3.org/TR/2001/REC-SVG-20010904/DTD/svg10.dtd">
<svg version="1.0" xmlns="http://www.w3.org/2000/svg"
 width="700.000000pt" height="700.000000pt" viewBox="0 0 700.000000 700.000000"
 preserveAspectRatio="xMidYMid meet">
<metadata>
Created by potrace 1.14, written by Peter Selinger 2001-2017
</metadata>
<g transform="translate(0.000000,700.000000) scale(0.100000,-0.100000)"
fill="#000000" stroke="none">
<path d="M3134 6633 c-214 -124 -409 -237 -434 -250 -25 -14 -65 -38 -90 -53
-45 -28 -400 -234 -475 -276 -22 -12 -86 -49 -143 -83 -57 -34 -106 -61 -108
-61 -3 0 -17 -9 -32 -19 -15 -10 -189 -112 -387 -227 -198 -114 -430 -248
-515 -298 -85 -49 -195 -112 -243 -139 -49 -28 -94 -60 -101 -71 -10 -17 -14
-236 -15 -1026 -2 -553 -4 -1297 -5 -1654 -2 -576 -1 -650 13 -667 14 -15 123
-82 284 -173 104 -58 766 -442 799 -463 21 -12 40 -23 43 -23 2 0 26 -13 52
-29 27 -16 67 -40 89 -53 81 -45 329 -190 344 -199 16 -10 220 -128 280 -161
19 -11 64 -37 100 -58 36 -21 81 -47 100 -58 19 -11 76 -43 125 -72 50 -29
110 -64 135 -78 25 -14 62 -36 82 -49 21 -12 40 -23 42 -23 2 0 40 -21 83 -47
85 -50 173 -101 243 -141 25 -14 54 -31 65 -38 22 -16 57 -18 70 -5 9 8 524
306 655 379 25 14 57 33 72 43 14 11 28 19 31 19 3 0 51 27 107 60 56 33 103
60 104 60 2 0 41 22 87 49 46 26 109 62 139 80 30 17 62 36 70 41 14 8 60 35
175 100 52 29 416 239 480 277 28 16 57 32 65 36 8 4 30 16 49 28 44 26 284
165 336 194 140 77 502 289 514 300 14 14 15 159 6 1110 -5 473 -17 1883 -19
2081 -1 107 -5 155 -14 166 -7 9 -70 49 -139 90 -69 40 -138 80 -152 88 -40
24 -324 194 -342 205 -9 5 -32 19 -50 29 -37 21 -655 387 -704 417 -16 11 -36
22 -44 25 -7 4 -61 36 -118 71 -58 34 -107 63 -109 63 -2 0 -23 12 -47 27 -23
14 -163 98 -312 186 -148 88 -328 194 -400 237 -324 192 -411 243 -431 250
-18 7 -93 -33 -410 -217z"/>
</g>
</svg>
