<svg xmlns="http://www.w3.org/2000/svg" fill="none" viewBox="0 0 32 32"><title>AirDAO</title><path fill="url(#a)" fill-rule="evenodd" d="M4.63 31.51a.45.45 0 0 1-.6-.13l-.52-.76a.46.46 0 0 1 .1-.62 20 20 0 0 0 4.2-4.45 17.04 17.04 0 0 0 0-19.53 20 20 0 0 0-4.2-4.44.46.46 0 0 1-.1-.62L4.02.2c.14-.2.4-.26.61-.13l22.98 14a2 2 0 0 1 0 3.43L4.63 31.51Z" clip-rule="evenodd"/><linearGradient id="a" x1="31.51" x2="-5.82" y1="16.07" y2="16.07" gradientUnits="userSpaceOnUse"><stop stop-color="#3568DD"/><stop offset="1" stop-color="#3568DD" stop-opacity=".6"/></linearGradient></svg>