<svg xmlns="http://www.w3.org/2000/svg" fill="none" viewBox="0 0 32 32"><title>Arbitrum</title><path fill="#213147" d="M2.9 9.73v12.54c0 .8.42 1.54 1.12 1.95l10.87 6.27c.69.4 1.55.4 2.24 0l10.86-6.27c.7-.4 1.13-1.14 1.13-1.95V9.73c0-.8-.42-1.54-1.13-1.95L17.13 1.51c-.7-.4-1.55-.4-2.24 0L4.02 7.78c-.7.4-1.11 1.14-1.11 1.95h-.02Z"/><path fill="#12AAFF" d="m18.37 18.43-1.55 4.25a.61.61 0 0 0 0 .37l2.66 7.31 3.09-1.78-3.7-10.15a.27.27 0 0 0-.5 0Zm3.1-7.14a.27.27 0 0 0-.5 0l-1.54 4.25a.61.61 0 0 0 0 .37l4.37 11.97 3.08-1.78-5.4-14.8v-.01Z"/><path fill="#9DCCED" d="M16 1.98c.08 0 .15.03.22.07l11.75 6.78c.14.08.22.23.22.39v13.56a.5.5 0 0 1-.22.39l-11.75 6.78a.43.43 0 0 1-.22.07.43.43 0 0 1-.22-.07L4.03 23.17a.43.43 0 0 1-.22-.39V9.2c0-.15.1-.3.22-.38l11.75-6.78a.43.43 0 0 1 .22-.07v.01ZM16 0c-.42 0-.83.1-1.22.32L3.03 7.1a2.41 2.41 0 0 0-1.21 2.1v13.57c0 .87.46 1.67 1.21 2.1l11.75 6.78a2.43 2.43 0 0 0 2.43 0l11.76-6.78a2.41 2.41 0 0 0 1.21-2.1V9.2c0-.87-.46-1.66-1.21-2.1L17.2.32A2.4 2.4 0 0 0 16 0Z"/><path fill="#213147" d="m8.22 27.9 1.09-2.98 2.17 1.8-2.03 1.88-1.23-.7Z"/><path fill="#fff" d="M15 8.24h-2.98a.54.54 0 0 0-.5.35l-6.39 17.5 3.09 1.79 7.04-19.3a.26.26 0 0 0-.25-.35v.01Zm5.22 0h-2.98a.54.54 0 0 0-.5.35l-7.3 20 3.1 1.77L20.46 8.6a.26.26 0 0 0-.25-.36v.01Z"/></svg>