<svg xmlns="http://www.w3.org/2000/svg" fill="none" viewBox="0 0 32 32"><title>Avalanche</title><path fill="#fff" d="M6.1 5.5H26v18H6v-18Z"/><path fill="#E84142" fill-rule="evenodd" d="M32 16a16 16 0 1 1-32 0 16 16 0 0 1 32 0Zm-20.5 6.4H8.4c-.7 0-1 0-1.2-.2a.8.8 0 0 1-.4-.6l.5-1L15 7l.7-1h.7l.7 1 1.6 2.8.6 1.3v1l-.6 1.3-4 7.1c-.4.7-.6 1-.9 1.2-.2.3-.6.5-1 .6h-1.3Zm7.8 0h4.5c.6 0 1 0 1.1-.2a.8.8 0 0 0 .4-.6l-.5-1-2.2-3.9-.7-1a.8.8 0 0 0-.7 0l-.7 1-2.2 3.8c-.4.6-.5.9-.5 1.1a.8.8 0 0 0 .3.7h1.2Z" clip-rule="evenodd"/><clipPath><path fill="#fff" d="M0 0h32v32H0z"/></clipPath></svg>