<svg xmlns="http://www.w3.org/2000/svg" fill="none" viewBox="0 0 32 32"><title>Avalanche</title><path fill="#fff" d="M25.87 5.49H6.1v17.96h19.76V5.49Z"/><path fill="#E84142" fill-rule="evenodd" d="M31.99 16a15.98 15.98 0 1 1-31.97-.01A15.98 15.98 0 0 1 32 16Zm-20.52 6.36h-3.1c-.66 0-.98 0-1.17-.13a.79.79 0 0 1-.36-.61c-.01-.23.15-.52.47-1.08l7.66-13.5c.33-.57.5-.86.7-.96a.8.8 0 0 1 .72 0c.2.1.37.39.7.96l1.57 2.75v.01c.36.62.54.93.62 1.26.08.35.08.73 0 1.09-.08.33-.26.64-.62 1.27l-4.02 7.1-.01.02c-.36.62-.54.94-.78 1.17-.28.26-.6.45-.96.56-.33.09-.69.09-1.42.09Zm7.84 0h4.44c.66 0 .99 0 1.18-.13a.79.79 0 0 0 .36-.62c.01-.22-.14-.5-.45-1.03l-.04-.05-2.22-3.81-.03-.04c-.31-.53-.47-.8-.67-.9a.78.78 0 0 0-.71 0c-.2.1-.37.38-.7.94l-2.22 3.81v.01c-.33.56-.5.84-.48 1.07a.8.8 0 0 0 .36.62c.19.13.52.13 1.18.13Z" clip-rule="evenodd"/></svg>