<svg xmlns="http://www.w3.org/2000/svg" fill="none" viewBox="0 0 32 32"><title>Bitcoin</title><path fill="#F7931A" d="M31.52 19.873c-2.136 8.572-10.819 13.79-19.392 11.651C3.558 29.387-1.66 20.704.479 12.134 2.615 3.559 11.298-1.658 19.87.479c8.572 2.137 13.79 10.82 11.651 19.394Z"/><path fill="#fff" d="M23.056 13.722c.318-2.13-1.303-3.274-3.52-4.038l.72-2.885-1.757-.437-.7 2.808a82.762 82.762 0 0 0-1.407-.33l.706-2.828-1.755-.438-.72 2.884a57.952 57.952 0 0 1-1.12-.263v-.009l-2.42-.605-.468 1.876s1.303.298 1.275.317c.712.177.84.648.819 1.021l-.819 3.286c.049.013.112.03.182.059l-.185-.046-1.148 4.603c-.087.216-.308.54-.805.417.017.026-1.277-.318-1.277-.318l-.87 2.01 2.284.57c.425.106.841.218 1.251.322l-.726 2.918 1.754.438.72-2.886c.465.125.932.246 1.4.362l-.718 2.873 1.755.439.728-2.913c2.994.566 5.245.338 6.193-2.37.763-2.18-.038-3.439-1.614-4.259 1.148-.264 2.012-1.02 2.242-2.578Zm-4.012 5.625c-.542 2.18-4.214 1.002-5.404.707l.964-3.866c1.19.297 5.007.886 4.44 3.16Zm.543-5.657c-.495 1.984-3.55.976-4.542.729l.875-3.506c.99.248 4.183.708 3.667 2.777Z"/></svg>