<svg xmlns="http://www.w3.org/2000/svg" fill="none" viewBox="0 0 32 32"><title>BNB Chain</title><path fill="#F0B90B" d="M7.5 5 16 0l8.5 5-3.2 1.7L16 3.6l-5.5 3-3-1.7Zm16.9 6-3-1.7-5.4 3.1-5.5-3-3 1.7v3.6l5.3 3V24l3 1.9L19 24v-6.1l5.4-3.1v-3.7h.1Zm0 10v-3.7l-3 1.9v3.5l3-1.8Zm2.3 1.1-5.4 3.1v3.6l8.6-5V14l-3.2 2v6.1ZM23.6 8l3 1.9v3.6l3.1-1.9V8l-3-1.9L23.6 8ZM12.8 26.5v3.6l3 1.9 3.1-1.9v-3.6l-3 1.9-3.1-1.9ZM7.5 21l3 1.8V19l-3-1.9v3.7Zm5.3-13 3 1.9L19.2 8 16 6.1 12.8 8ZM5.2 9.9 8.4 8 5.2 6.1 2.2 8v3.6l3 1.9V9.9Zm0 6.1-3-1.9V24l8.5 5v-3.7l-5.4-3V16h-.1Z"/></svg>