<svg xmlns="http://www.w3.org/2000/svg" fill="none" viewBox="0 0 32 32"><title>BNB Greenfield</title><path fill="#1E2329" d="M16 32a16 16 0 1 0 0-32 16 16 0 0 0 0 32Z"/><path fill="#F0B90B" d="M10.33 8.67 16 5.33l5.67 3.34-2.14 1.13L16 7.73l-3.67 2-2-1.13v.07Zm11.27 4-2-1.14L16 13.6l-3.67-2-2 1.13v2.4l3.54 2v4.2l2 1.27L18 21.33v-4.06l3.6-2.07v-2.47h.07l-.07-.06Zm0 6.66v-2.46l-2 1.26v2.34l2-1.2v.06Zm1.53.74-3.6 2.06v2.4l5.74-3.33v-6.53L23.13 16v4.07Zm-2.06-9.4 2 1.26v2.4l2.06-1.26v-2.4l-2-1.27-2.06 1.27ZM13.87 23v2.4l2 1.27 2.06-1.27V23l-2 1.27L13.87 23Zm-3.54-3.67 2 1.2V18l-2-1.27v2.6Zm3.54-8.66 2 1.26 2.26-1.26L16 9.4l-2.13 1.27ZM8.8 11.93l2.13-1.26L8.8 9.4l-2 1.27v2.4l2 1.26v-2.4Zm0 4.07-2-1.27v6.6l5.67 3.34V22.2l-3.6-2V16H8.8Z"/></svg>