<svg xmlns="http://www.w3.org/2000/svg" fill="none" viewBox="0 0 32 32"><circle cx="16" cy="16" r="16" fill="#fff"/><path fill="#0033AD" d="M11.03 15.84c-.04.82.58 1.52 1.4 1.56h.09c.82 0 1.48-.66 1.47-1.48a1.48 1.48 0 0 0-2.96-.08Zm-5.53-.38a.48.48 0 0 0-.5.45c-.01.26.19.5.45.5.27.02.5-.18.5-.45a.48.48 0 0 0-.44-.5Zm5.44-8.26a.49.49 0 0 0 .21-.64.48.48 0 0 0-.86.43c.12.24.4.34.65.22Zm1.5 2.64a.74.74 0 0 0 .33-1 .74.74 0 1 0-1.32.67c.18.36.63.51.99.33Zm-5.06 1.81a.61.61 0 1 0 .67-1.03.61.61 0 0 0-.67 1.03Zm.9 3.55a.74.74 0 0 0-.78.7.74.74 0 1 0 1.48.07.74.74 0 0 0-.7-.78Zm-.81 4.98a.62.62 0 0 0-.27.82.61.61 0 1 0 1.09-.55.61.61 0 0 0-.82-.27Zm2.87-6.53c.4.27.94.16 1.2-.25a.87.87 0 0 0-.25-1.2.86.86 0 0 0-1.2.25c-.27.4-.15.94.25 1.2Zm9.12-3.87a.74.74 0 1 0 .82-1.24.74.74 0 0 0-.82 1.24Zm1.52-2.62c.22.15.51.08.66-.14a.48.48 0 0 0-.14-.67.48.48 0 0 0-.67.14.5.5 0 0 0 .15.67Zm-1.41 7.26a1.48 1.48 0 0 0-1.56 1.4c-.04.82.58 1.53 1.4 1.57h.08a1.48 1.48 0 0 0 .08-2.97Zm-6.64-.87a1.48 1.48 0 1 0 2.64-1.34 1.48 1.48 0 0 0-1.99-.66 1.5 1.5 0 0 0-.65 2Zm11.61-1.9c.3-.16.41-.53.26-.83a.61.61 0 1 0-.26.83Zm-3.76.47a.87.87 0 0 0-.39 1.17.87.87 0 1 0 1.56-.78.87.87 0 0 0-1.17-.4Zm-4.84-5.18c.34.01.62-.24.65-.58A.62.62 0 0 0 16 5.7a.61.61 0 0 0-.64.57c-.02.34.24.63.57.66Zm0 3.84c.48.03.89-.34.91-.82a.87.87 0 0 0-.82-.92.86.86 0 0 0-.92.82c-.02.49.35.9.83.92Zm-4.72 8.92c.43-.21.6-.74.39-1.17a.87.87 0 1 0-1.56.79c.22.43.74.6 1.17.39Zm5.28-7.64c-.45.69-.26 1.6.43 2.05.68.45 1.6.26 2.04-.43a1.49 1.49 0 0 0-1.23-2.3c-.5 0-.97.26-1.24.68Zm2.57 6.22a1.48 1.48 0 0 0-1.98-.66 1.49 1.49 0 0 0 1.33 2.65 1.48 1.48 0 0 0 .66-1.98v-.01Zm2.59-.11a.86.86 0 0 0-1.2.25c-.27.4-.15.95.25 1.21s.95.15 1.2-.25a.87.87 0 0 0-.25-1.21Zm2.84-2.23a.74.74 0 1 0-1.48-.08.74.74 0 1 0 1.48.08Zm2.05-.54a.48.48 0 0 0-.5.46c-.02.27.18.5.45.5.26.03.48-.18.5-.45a.48.48 0 0 0-.45-.5Zm-1.93 4.78a.61.61 0 1 0-.67 1.02.61.61 0 0 0 .67-1.02Zm-13.6 4.48a.48.48 0 1 0 .14.67.47.47 0 0 0-.14-.67Zm10.04-.04a.49.49 0 0 0-.2.64c.1.24.4.33.64.22a.48.48 0 0 0 .2-.65.47.47 0 0 0-.64-.21Zm-5.56-4.85a1.48 1.48 0 1 0-2.48-1.63 1.49 1.49 0 0 0 1.24 2.3c.5 0 .97-.25 1.24-.67Zm-2.96 2.27a.74.74 0 1 0-.81 1.25.74.74 0 0 0 .81-1.25ZM16 24.89a.62.62 0 0 0-.65.57c-.02.34.24.63.57.65a.6.6 0 0 0 .65-.57.62.62 0 0 0-.58-.65Zm0-3.85a.86.86 0 0 0-.91.83.87.87 0 1 0 1.74.1.87.87 0 0 0-.83-.93Zm3.56.94a.75.75 0 0 0 .68 1.33.74.74 0 1 0-.68-1.32Z"/></svg>