<svg xmlns="http://www.w3.org/2000/svg" fill="none" viewBox="0 0 32 32"><title>Cronos</title><path fill="#fff" d="M9.76 4.38 3.27 8.21v15.8l6.3 3.72c3.45 2.07 6.46 3.72 6.72 3.72.25 0 3.26-1.65 6.7-3.72l6.31-3.72V8.2l-5.39-3.19a326.9 326.9 0 0 0-6.52-3.83L16.2.55 9.76 4.38ZM20.4 8.1a48.7 48.7 0 0 1 4.26 2.6c.18.15-.44.75-1.43 1.31l-1.73 1.06-2.64-1.47-2.6-1.43-2.46 1.4-2.45 1.42v6.24l2.45 1.43 2.46 1.4 2.6-1.43 2.64-1.47 1.73 1.05c.99.57 1.6 1.17 1.43 1.32a48.1 48.1 0 0 1-4.33 2.63c-3.81 2.22-4.07 2.33-4.95 1.8l-4.5-2.67-3.6-2.14.1-5.11.12-5.12 4.22-2.55c2.3-1.4 4.32-2.56 4.47-2.56.1-.04 2.01 1.02 4.21 2.3Z"/></svg>