<svg xmlns="http://www.w3.org/2000/svg" fill="none" viewBox="0 0 32 32"><title>Crust</title><path fill="#FA8C16" d="m5.26 7.82 12.3-7.1a1.37 1.37 0 0 1 1.36 0l7.74 4.47a1.37 1.37 0 0 1 .29 2.15l-2.62 2.64a1.37 1.37 0 0 1-1.66.22l-3.74-2.16a1.4 1.4 0 0 0-1.4 0L4.59 15.6V9c0-.49.26-.94.68-1.18Z"/><path fill="#fff" d="m26.7 26.81-7.78 4.49a1.36 1.36 0 0 1-1.37 0L5.26 24.2a1.37 1.37 0 0 1-.68-1.18v-5.99l6.33-3.67v6a1.36 1.36 0 0 0 .68 1.18l5.96 3.44a1.36 1.36 0 0 0 1.37 0l3.77-2.17a1.36 1.36 0 0 1 1.65.21l2.63 2.64a1.37 1.37 0 0 1-.28 2.15Z"/></svg>