<svg xmlns="http://www.w3.org/2000/svg" fill="none" viewBox="0 0 32 32"><title>eCash</title><path fill="url(#a)" fill-rule="evenodd" d="M9.08 10.88 15 7.45a1.87 1.87 0 0 1 1.92 0l2.94 1.68a.26.26 0 0 1 0 .44l-7.18 4.13a.59.59 0 0 0-.3.52v3.46a.55.55 0 0 0 .3.5l3 1.73a.53.53 0 0 0 .58 0l12.38-7.13c2.1-1.22 2.1-4.72 0-5.94L17.52.43a2.97 2.97 0 0 0-3.08 0L3.31 6.84a3.04 3.04 0 0 0-1.55 2.68c0 4.28.02 8.57 0 12.84a3.05 3.05 0 0 0 1.55 2.67l11.13 6.44a3.06 3.06 0 0 0 3.08 0l11.13-6.44a3 3 0 0 0 1.53-2.67v-5.58l-13.25 7.66a1.89 1.89 0 0 1-1.92 0l-5.9-3.43a1.87 1.87 0 0 1-.97-1.65v-6.84a1.9 1.9 0 0 1 .94-1.64Z" clip-rule="evenodd"/><linearGradient id="a" x1="9.12" x2="21.66" y1="-4.35" y2="32.83" gradientUnits="userSpaceOnUse"><stop stop-color="#273498"/><stop offset=".53" stop-color="#0074C2"/><stop offset="1" stop-color="#00ABE7"/></linearGradient></svg>