<svg xmlns="http://www.w3.org/2000/svg" fill="none" viewBox="0 0 32 32"><title>Fantom</title><path fill="#fff" d="M15.14 1.28a3.44 3.44 0 0 1 2.72 0l7.82 3.93c.45.24.72.59.75.94v19.62c0 .4-.25.77-.75 1.03l-7.87 3.9a3.32 3.32 0 0 1-2.72 0l-7.8-3.95c-.5-.23-.74-.63-.74-1.03V6.15c.02-.37.27-.7.74-.94l7.85-3.93Zm10.1 15.8-7.4 3.68a3.32 3.32 0 0 1-2.73 0L7.8 17.08v8.64l7.35 3.6c.4.24.84.43 1.24.48h.1c.44 0 .86-.24 1.3-.43l7.43-3.72v-8.57h.03Zm-20 8.24c0 .75.1 1.25.27 1.6.2.32.48.59.82.77v.02l.32.19.15.1.44.23-.64 1-.5-.28-.07-.04-.37-.24C4.45 27.92 4 27.1 4 25.4v-.07h1.24Zm10.64-13.5c-.07 0-.12.04-.17.07l-7.87 3.86v.02l7.87 3.96.15.05v-7.96h.02Zm1.24 0v7.96l.15-.05 7.84-3.91h.03v-.02l-7.9-3.94-.17-.07.05.03Zm8.12-4.31-7.06 3.51 7.06 3.51V7.51Zm-17.48 0v7.02l7.03-3.51-7.03-3.51Zm9.5-5.18a2.08 2.08 0 0 0-1.55 0l-7.87 3.9v.01l7.87 3.91a2.08 2.08 0 0 0 1.56 0l7.84-3.9h.03v-.03l-7.9-3.9.03.01Zm9.14.45.5.28.07.05.37.23C28.55 4.1 29 4.91 29 6.62v.07h-1.24c0-.77-.1-1.27-.27-1.62a2.1 2.1 0 0 0-.82-.77l-.32-.21-.15-.07-.44-.23.64-1.01Z"/></svg>