<svg xmlns="http://www.w3.org/2000/svg" fill="none" viewBox="0 0 32 32"><title>Gnosis Chain</title><path fill="#3E6957" d="M9.4 18.22c.93 0 1.82-.3 2.55-.87l-5.83-5.83a4.17 4.17 0 0 0 3.29 6.7Zm17.35-4.16c0-.92-.3-1.82-.87-2.55l-5.83 5.84a4.16 4.16 0 0 0 6.7-3.3Z"/><path fill="#3E6957" d="m29.69 7.7-2.58 2.59a5.88 5.88 0 0 1-8.28 8.27L16 21.4l-2.83-2.83A5.88 5.88 0 0 1 4.9 10.3L3.57 8.97 2.32 7.71a16 16 0 1 0 27.37 0Z"/><path fill="#3E6957" d="M27.57 4.96A16 16 0 0 0 3.3 6.26L16 18.97l12.7-12.7c-.35-.45-.73-.88-1.13-1.3ZM16 2.09c3.74 0 7.22 1.45 9.84 4.08L16 16 6.16 6.17A13.75 13.75 0 0 1 16 2.09Z"/></svg>