<svg xmlns="http://www.w3.org/2000/svg" fill="none" viewBox="0 0 32 32"><title>IntegriTEE</title><path fill="url(#integritee-b)" d="M5.8 11.73v14.53a1 1 0 0 0 .52.87l8.21 4.63c.2.1.5.3.65.22.8-.39 1.58-.86 2.43-1.34-.22-.15-.34-.24-.47-.31l-8.67-4.94v-2.93l2.31 1.3 8.87 5.01c.22.13.55.32.7.25.87-.42 1.7-.9 2.65-1.43L8.47 19.3v-2.9l3.77 2.13a38726 38726 0 0 1 12.96 7.32.86.86 0 0 0 .85 0l2.28-1.3-3.05-1.74L5.8 11.73Z"/><path fill="url(#integritee-c)" d="M30.2 7.74a460.5 460.5 0 0 1-5.83-3.18L21.32 2.9l-2.67 1.46 8.83 4.8c.18.07.32.19.42.34.1.15.14.32.13.5v2.16l-.03-.01c-1.47-.79-6.02-3.13-7.48-3.94l-4.46-2.44-2.84 1.55c3.92 2.13 10.68 5.67 14.82 7.91v2.86a1.7 1.7 0 0 0-.14-.1c-5.63-3.06-14.33-7.67-19.95-10.75l2.56-1.4 2.85-1.55 2.57-1.4 2.68-1.47L16.37.2c-.18-.1-.47-.24-.6-.17-.44.2-.87.44-1.3.67L4.9 5.9l-.11.06-.43.24-2.83 1.54a.8.8 0 0 0-.36.31.73.73 0 0 0-.11.45c.01 5.04.02 10.08.01 15.12a.82.82 0 0 0 .51.81c.73.38 1.46.78 2.19 1.18v-3.33a1.67 1.67 0 0 1-.02-.26c.02-4.16.02-8.33.02-12.5L5.1 8.8c4.9 2.66 11.35 6.1 17.12 9.18l.04.02 4.97 2.67 3.43 1.84c0-4.65.02-9.3.04-13.96a.78.78 0 0 0-.11-.48.85.85 0 0 0-.39-.33Z"/><linearGradient id="integritee-b" x1="5.81" x2="28.32" y1="21.88" y2="21.88" gradientUnits="userSpaceOnUse"><stop stop-color="#B000FD"/><stop offset="0" stop-color="#B000FD"/><stop offset=".98" stop-color="#30DAFF"/></linearGradient><linearGradient id="integritee-c" x1="1.07" x2="30.68" y1="12.81" y2="12.81" gradientUnits="userSpaceOnUse"><stop stop-color="#B000FD"/><stop offset="0" stop-color="#B000FD"/><stop offset=".98" stop-color="#30DAFF"/></linearGradient></svg>