<svg xmlns="http://www.w3.org/2000/svg" fill="none" viewBox="0 0 32 32"><title>IoTeX</title><mask id="iotex-a" width="34" height="33" x="-1" y="0" maskUnits="userSpaceOnUse" style="mask-type:alpha"><path fill="#fff" d="M19.44.21v7.66l6.35-3.83L19.44.21Z"/><path fill="#fff" d="M25.79 4.04v7.66l6.35-3.83-6.35-3.83Z" opacity=".9"/><path fill="#fff" d="M19.44 7.87v7.65l6.35-3.82-6.35-3.83Zm6.35 3.83v7.66l6.35-3.84-6.35-3.82Zm-6.35 3.82v7.66l6.35-3.82-6.35-3.84Z" opacity=".8"/><path fill="#fff" d="M25.79 19.36V27l6.35-3.83-6.35-3.82Z"/><path fill="#fff" d="M3.01 7.6v7.67l6.36-3.84L3 7.61Z" opacity=".4"/><path fill="#fff" d="M11.03 10.46v7.65l6.34-3.82-6.34-3.83Z" opacity=".2"/><path fill="#fff" d="M6.32 15.3v7.66l6.35-3.84-6.35-3.82Z" opacity=".3"/><path fill="#fff" d="M10.5 21.08v7.65l6.35-3.83-6.34-3.82Z" opacity=".9"/><path fill="#fff" d="M19.38 24.37v7.66l6.35-3.83-6.35-3.83Z" opacity=".7"/><path fill="#fff" d="M12.09 6.67v7.66l6.34-3.82-6.34-3.84Z" opacity=".9"/><path fill="#fff" d="M19.44.21v7.66l-6.36-3.83L19.44.21Z" opacity=".8"/><path fill="#fff" d="M12.09 3.46v7.66L5.73 7.29l6.36-3.83Zm6.35 3.8v7.65l-6.35-3.83 6.35-3.82Z" opacity=".6"/><path fill="#fff" d="M11 10.46v7.65L4.65 14.3 11 10.46Z" opacity=".95"/><path fill="#fff" d="M19.44 15.52v7.66l-6.35-3.82 6.35-3.84Z" opacity=".6"/><path fill="#fff" d="M6.32 17.3v7.66l-6.35-3.83 6.35-3.82Z" opacity=".55"/><path fill="#fff" d="M32.14 7.87v7.65L25.8 11.7l6.35-3.83Z"/><path fill="#fff" d="M25.79 11.7v7.66l-6.35-3.84 6.35-3.82Z" opacity=".95"/><path fill="#fff" d="M32.14 15.52v7.66l-6.35-3.82 6.35-3.84Z" opacity=".9"/><path fill="#fff" d="M25.79 19.36V27l-6.35-3.83 6.35-3.82Z" opacity=".7"/><path fill="#fff" d="M18.03 22.55v7.65l-6.35-3.82 6.35-3.83Z" opacity=".4"/><path fill="#fff" d="M25.79 4.04v7.66l-6.35-3.83 6.35-3.83Z"/></mask><g mask="url(#iotex-a)"><path fill="url(#iotex-b)" d="M-2.1-1.57h36.2V38.3H-2.1V-1.57Z"/></g><linearGradient id="iotex-b" x1="2.62" x2="40.13" y1="21.25" y2="27.25" gradientUnits="userSpaceOnUse"><stop offset=".07" stop-color="#77FE9E"/><stop offset=".4" stop-color="#4285F4"/><stop offset="1" stop-color="#EC02D5"/></linearGradient></svg>