<svg xmlns="http://www.w3.org/2000/svg" fill="none" viewBox="0 0 32 32"><title>IoTeX</title><g clip-path="url(#a)"><path fill="url(#b)" d="M19.4.9v7.3l6.3-3.7L19.4 1Z"/><path fill="#fff" d="M25.7 19v7.3l6.3-3.6-6.3-3.7Z"/><path fill="#86F4D0" fill-opacity=".4" d="M3 7.9v7.2l6.4-3.6L3 8Z"/><path fill="#86F4D0" fill-opacity=".2" d="M11 10.6v7.3l6.3-3.7-6.3-3.6Z"/><path fill="#86F4D0" fill-opacity=".3" d="M6.3 15.2v7.3l6.3-3.7-6.3-3.6Z"/><path fill="#fff" fill-opacity=".9" d="M10.5 20.7V28l6.3-3.7-6.3-3.6Z"/><path fill="url(#c)" fill-opacity=".9" d="M12 7v7.3l6.4-3.7L12 7Z"/><path fill="#fff" fill-opacity=".6" d="M12 4v7.2L5.9 7.6 12 4Z"/><path fill="#86F4D0" fill-opacity=".6" d="M19.4 15.4v7.3L13 19l6.3-3.6Z"/><path fill="url(#d)" d="M32 8.2v7.2l-6.3-3.6L32 8.2Z"/><path fill="#86F4D0" fill-opacity=".7" d="M25.7 19v7.3l-6.3-3.6 6.3-3.7Z"/><path fill="#86F4D0" fill-opacity=".4" d="M18 22v7.3l-6.3-3.6 6.3-3.6Z"/><path fill="url(#e)" d="M25.7 4.5v7.3l-6.3-3.6 6.3-3.7Z"/><path fill="url(#f)" d="M6.3 17.1v7.3L0 20.8 6.3 17Z"/><path fill="url(#g)" d="M25.7 4.5v7.3L32 8.2l-6.3-3.7Z"/><path fill="#fff" d="M32 22.7v-7.3L25.7 19l6.3 3.7Z"/><path fill="url(#h)" d="M19.4 8.2v7.2l6.3-3.6-6.3-3.6Z"/><path fill="#fff" d="M19.4 22.7v-7.3l6.3 3.6-6.3 3.7Zm6.3-3.7v-7.2l6.3 3.6-6.3 3.6Zm0 0v-7.2l-6.3 3.6 6.3 3.6Z"/><path fill="url(#i)" d="M25.7 11.8V19l6.3-3.6-6.3-3.6Z"/><path fill="url(#j)" d="M25.7 11.8V19l-6.3-3.6 6.3-3.6Z"/><path fill="url(#k)" d="M32 15.4v7.3L25.7 19l6.3-3.6Z"/><path fill="url(#l)" d="M19.4 15.4v7.3l6.3-3.7-6.3-3.6Z"/><path fill="url(#m)" d="M25.7 19v7.3l6.3-3.6-6.3-3.7Z"/><path fill="url(#n)" d="M10.5 20.7V28l6.3-3.7-6.3-3.6Z"/><path fill="url(#o)" d="M19.4.9v7.3L13 4.5 19.4 1Z"/><path fill="url(#p)" d="M11 10.6v7.3l-6.3-3.7 6.3-3.6Z"/><path fill="url(#q)" d="M18.4 7.6v7.2L12 11.2l6.3-3.6Z"/><path fill="url(#r)" d="M12 7v7.3l6.4-3.7L12 7Z"/><path fill="url(#s)" d="M12 4v7.2L5.9 7.6 12 4Z"/><path fill="url(#t)" d="M19.3 23.8v7.3l6.3-3.7-6.3-3.6Z"/></g><defs><linearGradient id="b" x1="22.5" x2="22.5" y1="8.1" y2=".9" gradientUnits="userSpaceOnUse"><stop stop-color="#2ADEB4"/><stop offset="1" stop-color="#44FCB1"/></linearGradient><linearGradient id="c" x1="13.6" x2="15.8" y1="7.4" y2="14.2" gradientUnits="userSpaceOnUse"><stop stop-color="#3AF3B1"/><stop offset="1" stop-color="#2CDFB5"/></linearGradient><linearGradient id="d" x1="27.2" x2="32.3" y1="8.5" y2="12.9" gradientUnits="userSpaceOnUse"><stop stop-color="#42FCAF"/><stop offset="1" stop-color="#35E3B6"/></linearGradient><linearGradient id="e" x1="20.9" x2="26" y1="4.9" y2="9.3" gradientUnits="userSpaceOnUse"><stop stop-color="#3AF3B1"/><stop offset="1" stop-color="#2CDFB5"/></linearGradient><linearGradient id="f" x1="1.5" x2="6.6" y1="17.5" y2="21.9" gradientUnits="userSpaceOnUse"><stop stop-color="#90F5D4"/><stop offset="1" stop-color="#8FEED6"/></linearGradient><linearGradient id="g" x1="25.4" x2="30.5" y1="6.9" y2="11.4" gradientUnits="userSpaceOnUse"><stop stop-color="#53FDB7"/><stop offset="1" stop-color="#43E6BB"/></linearGradient><linearGradient id="h" x1="20.1" x2="23.5" y1="9.1" y2="15.3" gradientUnits="userSpaceOnUse"><stop stop-color="#7AFEC7"/><stop offset="1" stop-color="#66E7C9"/></linearGradient><linearGradient id="i" x1="25.4" x2="30.5" y1="14.2" y2="18.6" gradientUnits="userSpaceOnUse"><stop stop-color="#53FDB7"/><stop offset="1" stop-color="#43E6BB"/></linearGradient><linearGradient id="j" x1="22" x2="24.2" y1="11.8" y2="18.6" gradientUnits="userSpaceOnUse"><stop stop-color="#3AF3B1"/><stop offset="1" stop-color="#2CDFB5"/></linearGradient><linearGradient id="k" x1="27.2" x2="32.3" y1="15.8" y2="20.2" gradientUnits="userSpaceOnUse"><stop stop-color="#42FCAF"/><stop offset="1" stop-color="#35E3B6"/></linearGradient><linearGradient id="l" x1="20.1" x2="23.5" y1="16.3" y2="22.6" gradientUnits="userSpaceOnUse"><stop stop-color="#7AFEC7"/><stop offset="1" stop-color="#66E7C9"/></linearGradient><linearGradient id="m" x1="27.3" x2="29.4" y1="19.4" y2="26.3" gradientUnits="userSpaceOnUse"><stop stop-color="#3AF3B1"/><stop offset="1" stop-color="#2CDFB5"/></linearGradient><linearGradient id="n" x1="12" x2="14.2" y1="21" y2="27.9" gradientUnits="userSpaceOnUse"><stop stop-color="#3AF3B1"/><stop offset="1" stop-color="#2CDFB5"/></linearGradient><linearGradient id="o" x1="15" x2="19.2" y1="7.9" y2="2.4" gradientUnits="userSpaceOnUse"><stop stop-color="#56E7C4"/><stop offset="1" stop-color="#68FEBF"/></linearGradient><linearGradient id="p" x1="6.6" x2="10.8" y1="17.7" y2="12.1" gradientUnits="userSpaceOnUse"><stop stop-color="#36E1B7"/><stop offset="1" stop-color="#68FEBF"/></linearGradient><linearGradient id="q" x1="14.1" x2="18.2" y1="14.6" y2="9.1" gradientUnits="userSpaceOnUse"><stop stop-color="#56E7C4"/><stop offset="1" stop-color="#68FEBF"/></linearGradient><linearGradient id="r" x1="13.6" x2="15.8" y1="7.4" y2="14.2" gradientUnits="userSpaceOnUse"><stop stop-color="#3AF3B1"/><stop offset="1" stop-color="#2CDFB5"/></linearGradient><linearGradient id="s" x1="12.6" x2="6.9" y1="8" y2="4.5" gradientUnits="userSpaceOnUse"><stop stop-color="#82EFD2"/><stop offset="1" stop-color="#8EFECF"/></linearGradient><linearGradient id="t" x1="20.1" x2="23.4" y1="24.7" y2="31" gradientUnits="userSpaceOnUse"><stop stop-color="#7AFEC7"/><stop offset="1" stop-color="#66E7C9"/></linearGradient><clipPath id="a"><path fill="#fff" d="M0 0h32v32H0z"/></clipPath></defs></svg>