<svg xmlns="http://www.w3.org/2000/svg" fill="none" viewBox="0 0 32 32"><title>Moonbeam</title><path fill="#5FC0C1" d="M22.47 3.92c3.63 1.6 6.13 5.49 5.9 9.38H8.85c0-2.52.9-5.27 2.72-7.1 2.5-3.2 7.27-4.12 10.9-2.28Z"/><path fill="#E1177C" d="M22.01 28.86c.46 0 .68.22.68.45s-.22.46-.68.46H11.57c-.45 0-.68-.23-.68-.46s.23-.45.68-.45h10.44ZM9.3 30c.46 0 .69-.23.69-.69 0-.45-.23-.68-.69-.68-.45 0-.68.23-.68.68 0 .46.23.69.68.69Zm6.36-2.75c.45 0 .68-.22.68-.68 0-.46-.23-.69-.68-.69-.45 0-.68.23-.68.69 0 .46.23.68.68.68Zm12.25-1.37c.46 0 .69.23.69.69 0 .46-.23.68-.69.68h-10.2c-.46 0-.69-.22-.69-.68 0-.46.23-.69.68-.69h10.21ZM2.04 24.5c.46 0 .68-.22.68-.68 0-.46-.22-.68-.68-.68-.45 0-.68.22-.68.68 0 .46.46.69.68.69Zm10.22-1.36c.45 0 .68.22.68.68 0 .46-.23.69-.68.69h-8.4c-.46 0-.68-.23-.68-.69 0-.46.22-.68.68-.68h8.4Zm19.06 0c.45 0 .68.22.68.68 0 .46-.23.69-.68.69h-16.8c-.45 0-.68-.23-.68-.69 0-.46.23-.68.68-.68h16.8Zm-3.18-2.75c.46 0 .68.23.68.69 0 .45-.22.68-.68.68H7.5c-.23.23-.68-.23-.68-.68 0-.46.23-.69.68-.69h20.65ZM5.22 22c.45 0 .68-.24.68-.7 0-.45-.23-.91-.68-.91-.45 0-.68.46-.68.69 0 .23.23.91.68.91Zm18.61-4.13c.45 0 .68.23.68.69 0 .46-.23.69-.68.69H3.18c-.23 0-.68-.23-.68-.7 0-.45.22-.68.68-.68h20.65ZM.68 19.25c.45 0 .68-.23.68-.7 0-.45-.23-.68-.68-.68-.45 0-.68.23-.68.69 0 .46.23.69.68.69Zm4.54-2.75c.45 0 .68-.23.68-.69 0-.45-.23-.68-.68-.68-.45 0-.68.45-.68.68 0 .46.23.69.68.69Zm24.96-1.37c.46 0 .69.23.69.68 0 .46-.23.69-.69.69H7.72c-.46 0-.68-.23-.68-.69 0-.45.22-.68.68-.68h22.46Z"/></svg>