<svg xmlns="http://www.w3.org/2000/svg" fill="none" viewBox="0 0 32 32"><title>Optimism</title><path fill="#FF0420" d="M16 32a16 16 0 1 0 0-32 16 16 0 0 0 0 32Z"/><path fill="#fff" d="M11.33 20.25c-.95 0-1.73-.22-2.34-.67a2.3 2.3 0 0 1-.9-1.95c0-.18.02-.39.06-.64.1-.58.25-1.27.44-2.08.54-2.2 1.95-3.3 4.22-3.3.61 0 1.17.1 1.65.3a2.45 2.45 0 0 1 1.57 2.36c0 .17-.01.38-.05.64-.12.7-.26 1.4-.43 2.08a4.41 4.41 0 0 1-1.46 2.46c-.68.54-1.6.8-2.76.8Zm.18-1.73c.45 0 .82-.13 1.14-.4.32-.26.55-.66.68-1.21.19-.76.33-1.4.42-1.97.04-.17.05-.34.05-.52 0-.73-.37-1.1-1.13-1.1-.45 0-.84.14-1.16.4-.31.26-.53.67-.67 1.22-.15.54-.29 1.19-.43 1.97-.04.16-.05.33-.05.5-.01.75.38 1.11 1.15 1.11Zm5.09 1.61c-.1 0-.16-.02-.21-.08-.04-.06-.05-.13-.04-.22l1.66-7.8a.32.32 0 0 1 .13-.22.35.35 0 0 1 .23-.09h3.2c.89 0 1.6.2 2.14.56.54.37.81.9.81 1.6 0 .2-.02.4-.07.62-.2.92-.6 1.6-1.21 2.04a4.1 4.1 0 0 1-2.48.66h-1.62l-.55 2.63a.34.34 0 0 1-.13.22.35.35 0 0 1-.23.08H16.6Zm4.24-4.58c.34 0 .63-.1.88-.28.26-.19.42-.45.5-.8.03-.13.05-.25.05-.35a.7.7 0 0 0-.2-.53c-.14-.13-.38-.2-.7-.2h-1.45l-.45 2.16h1.37Z"/></svg>