<svg viewBox="0 0 32 32" fill="none" xmlns="http://www.w3.org/2000/svg"><title>Polkadot</title><path d="M16 6.71773C19.1773 6.71773 21.7645 5.19716 21.7645 3.35887C21.7645 1.49787 19.1773 0 16 0C12.8227 0 10.2355 1.49787 10.2355 3.35887C10.2355 5.19716 12.8227 6.71773 16 6.71773ZM16 32C19.1773 32 21.7645 30.5021 21.7645 28.6411C21.7645 26.7801 19.1773 25.2823 16 25.2823C12.8227 25.2823 10.2355 26.7801 10.2355 28.6411C10.2355 30.5021 12.8227 32 16 32ZM7.96595 11.3475C9.5546 8.60142 9.53191 5.60567 7.94326 4.67518C6.33191 3.74468 3.74468 5.24255 2.13333 7.98865C0.544675 10.7574 0.56737 13.7532 2.15602 14.6837C3.76737 15.5915 6.3546 14.1163 7.96595 11.3475ZM29.8667 24.0113C31.4553 21.2426 31.4326 18.2468 29.844 17.3163C28.2326 16.4085 25.6454 17.8837 24.034 20.6525C22.4454 23.3986 22.4681 26.3943 24.0567 27.3248C25.6681 28.2553 28.2553 26.7574 29.8667 24.0113ZM7.94326 27.3248C9.53191 26.3943 9.5546 23.3986 7.96595 20.6525C6.3546 17.8837 3.76737 16.3858 2.15602 17.3163C0.56737 18.2468 0.544675 21.2426 2.13333 24.0113C3.74468 26.7574 6.33191 28.2553 7.94326 27.3248ZM29.844 14.6837C31.4326 13.7532 31.4553 10.7574 29.8667 7.98865C28.2553 5.24255 25.6681 3.74468 24.0567 4.67518C22.4681 5.60567 22.4454 8.60142 24.034 11.3475C25.6454 14.1163 28.2326 15.5915 29.844 14.6837Z" fill="#E6007A"/></svg>
