<svg xmlns="http://www.w3.org/2000/svg" fill="none" viewBox="0 0 32 32"><title>Polygon</title><path fill="#8247E5" d="M24.2 11.24a2.04 2.04 0 0 0-1.92 0l-4.48 2.64-3.04 1.68-4.4 2.64c-.56.32-1.28.32-1.92 0L5 16.12a1.92 1.92 0 0 1-.96-1.68v-4c0-.64.32-1.28.96-1.68l3.44-2a2.04 2.04 0 0 1 1.92 0l3.44 2.08c.56.32.96.96.96 1.68v2.64l3.04-1.76V8.68c0-.64-.32-1.28-.96-1.68l-6.4-3.76a2.04 2.04 0 0 0-1.92 0L1.96 7.08c-.64.32-.96.96-.96 1.6v7.52c0 .64.32 1.28.96 1.68l6.48 3.76c.56.32 1.28.32 1.92 0l4.4-2.56 3.04-1.76 4.4-2.56a2.04 2.04 0 0 1 1.92 0l3.44 2c.56.32.96.96.96 1.68v4c0 .64-.32 1.28-.96 1.68l-3.36 2c-.56.32-1.28.32-1.92 0l-3.44-2a1.92 1.92 0 0 1-.96-1.68v-2.56l-3.04 1.76v2.64c0 .64.32 1.28.96 1.68l6.48 3.76c.56.32 1.28.32 1.92 0l6.48-3.76c.56-.32.96-.96.96-1.68v-7.6c0-.64-.32-1.28-.96-1.68l-6.48-3.76Z"/></svg>