<svg xmlns="http://www.w3.org/2000/svg" fill="none" viewBox="0 0 32 32"><title>Scroll</title><path fill="#FFF8F3" d="M3.88 11.84A5.98 5.98 0 0 1 1.85 7.5v-.18a5.66 5.66 0 0 1 5.5-5.44h18.8c.5.01.9.36.9.86v16c.41.07.64.14 1.05.28.34.14.78.39.78.39V2.74a2.76 2.76 0 0 0-2.7-2.73H7.32a7.47 7.47 0 0 0-4.48 13.33c.13.1.24.23.56.23a.9.9 0 0 0 .92-.92c-.02-.42-.2-.56-.45-.81Z"/><path fill="#FFF8F3" d="M25.68 19.78H10.92a1.8 1.8 0 0 0-1.8 1.81v2.13a1.9 1.9 0 0 0 1.86 1.82h1.08v-1.8H11v-2.1h.6c1.86 0 3.24 1.75 3.24 3.6a3.71 3.71 0 0 1-7.43 0V7.18c0-.8-.65-1.48-1.47-1.48H4.45v1.85h1.1v17.7c-.05 3.6 2.56 5.41 5.29 5.41l14.87.06a5.47 5.47 0 0 0 0-10.92l-.03-.02Zm3.6 5.58a3.6 3.6 0 0 1-3.6 3.48l-10.35-.03a5.4 5.4 0 0 0 1.34-3.56c0-2.13-1.27-3.59-1.27-3.59h10.3a3.59 3.59 0 0 1 3.59 3.6l-.02.1ZM21.7 7.9H10.57V6.04H21.7a.93.93 0 0 1 0 1.85Z"/><path fill="#FFF8F3" d="M21.7 16.58H10.57v-1.85H21.7a.93.93 0 0 1 0 1.85Zm1.97-4.34h-13.1v-1.87h13.08a.93.93 0 0 1 .02 1.85v.02Z"/></svg>