<svg xmlns="http://www.w3.org/2000/svg" fill="none" viewBox="0 0 32 32"><title>Solana</title><path fill="url(#solana-b)" d="m31.84 23.88-5.29 5.52a1.23 1.23 0 0 1-.9.38H.62a.63.63 0 0 1-.33-.1.58.58 0 0 1-.11-.9l5.28-5.52a1.23 1.23 0 0 1 .9-.38H31.4c.12 0 .23.03.33.1a.58.58 0 0 1 .11.9Zm-5.29-11.11a1.23 1.23 0 0 0-.9-.38H.62a.62.62 0 0 0-.33.1.58.58 0 0 0-.11.9l5.28 5.52a1.23 1.23 0 0 0 .9.38H31.4c.12 0 .23-.03.33-.1a.58.58 0 0 0 .11-.9l-5.28-5.52ZM.61 8.8h25.05a1.25 1.25 0 0 0 .9-.37l5.28-5.52a.6.6 0 0 0 .1-.65.6.6 0 0 0-.22-.26.63.63 0 0 0-.33-.1H6.35a1.25 1.25 0 0 0-.9.38L.17 7.8a.6.6 0 0 0-.12.64c.05.11.13.2.23.27.1.06.21.1.33.1Z"/><linearGradient id="solana-b" x1="2.7" x2="28.2" y1="30.45" y2=".95" gradientUnits="userSpaceOnUse"><stop offset=".08" stop-color="#9945FF"/><stop offset=".3" stop-color="#8752F3"/><stop offset=".5" stop-color="#5497D5"/><stop offset=".6" stop-color="#43B4CA"/><stop offset=".72" stop-color="#28E0B9"/><stop offset=".97" stop-color="#19FB9B"/></linearGradient></svg>