<svg xmlns="http://www.w3.org/2000/svg" fill="none" viewBox="0 0 32 32"><title>Starknet</title><path fill="#0C0C4F" stroke="#EC796B" stroke-width=".51" d="M.78 16.2a15.41 15.41 0 1 0 30.82 0 15.41 15.41 0 0 0-30.82 0Z"/><path fill="#FAFAFA" fill-rule="evenodd" d="m9.3 12.52.4-1.2a.78.78 0 0 1 .5-.5l1.2-.37a.18.18 0 0 0 0-.33l-1.19-.4a.78.78 0 0 1-.5-.5l-.37-1.2a.18.18 0 0 0-.34 0L8.62 9.2a.78.78 0 0 1-.51.5l-1.2.37a.18.18 0 0 0 0 .34l1.19.38a.78.78 0 0 1 .5.52l.37 1.2a.18.18 0 0 0 .34 0Z" clip-rule="evenodd"/><path fill="#EC796B" fill-rule="evenodd" d="M28.22 11.82a3.49 3.49 0 0 0-2.02-.99 6.91 6.91 0 0 0-2.29.02c-1.5.26-2.87.88-4.06 1.65-.62.38-1.15.82-1.7 1.26-.27.23-.5.47-.76.7l-.68.69a26.5 26.5 0 0 1-2.19 2.07 9.99 9.99 0 0 1-2.03 1.34c-.66.3-1.36.5-2.27.52-.91.03-1.99-.13-3.13-.4-1.16-.27-2.37-.65-3.72-.98a11.14 11.14 0 0 0 2.1 3.52 9.88 9.88 0 0 0 3.56 2.62 8.7 8.7 0 0 0 5 .52 10.89 10.89 0 0 0 4.46-2.05 15.91 15.91 0 0 0 3.57-3.8l.46-.69c.32-.42.61-.9.93-1.32.62-.88 1.23-1.75 1.95-2.56.36-.42.76-.81 1.18-1.18.23-.19.47-.36.73-.52.28-.18.58-.32.9-.42Z" clip-rule="evenodd"/><path fill="#FAFAFA" fill-rule="evenodd" d="M28.22 11.82a6.97 6.97 0 0 0-7.78-4.18 8.1 8.1 0 0 0-2.53.95 10.53 10.53 0 0 0-2.84 2.43l-.68.87-1.06 1.4c-1.35 1.82-2.8 3.93-5.18 4.56-2.34.62-3.35.07-4.78-.15a7.7 7.7 0 0 0 3.62 4.15 6.98 6.98 0 0 0 3.95.66c.9-.13 1.78-.4 2.6-.81a11.2 11.2 0 0 0 2.07-1.36c1.2-1 2.15-2.11 2.94-3.24.4-.55.76-1.12 1.1-1.7l.4-.68.36-.59c.5-.75 1-1.35 1.59-1.8.59-.46 1.4-.8 2.5-.89a13 13 0 0 1 3.72.38Z" clip-rule="evenodd"/><path fill="#EC796B" fill-rule="evenodd" d="M22.33 22.93a1.78 1.78 0 1 0 3.56 0 1.78 1.78 0 0 0-3.56 0Z" clip-rule="evenodd"/></svg>