<svg xmlns="http://www.w3.org/2000/svg" fill="none" viewBox="0 0 32 32"><title>Stellar</title><circle cx="16" cy="16" r="16" fill="#fff"/><path fill="#000" d="m23.9 9.44-2.65 1.36-12.8 6.53a7.72 7.72 0 0 1 .95-4.8 7.63 7.63 0 0 1 10.33-2.86l1.51-.77.23-.12a9.3 9.3 0 0 0-14.75 8.26 1.7 1.7 0 0 1-.92 1.64l-.8.41V21l2.35-1.2.77-.4.75-.38 13.48-6.89 1.52-.77L27 9.76v-1.9l-3.1 1.58ZM27 12 9.63 20.24l-1.51.72L5 22.44v1.76l3.1-1.46 2.65-1.26 12.8-6.08a6.74 6.74 0 0 1-.95 4.46 7.37 7.37 0 0 1-2.76 2.6 8.05 8.05 0 0 1-7.57.06l-.1.05-1.64.78a9.9 9.9 0 0 0 9.7.7 9.09 9.09 0 0 0 3.7-3.19 8.23 8.23 0 0 0 1.35-5.2c-.02-.3.05-.61.21-.88.17-.27.41-.5.71-.64l.8-.38V12Z"/></svg>