<svg xmlns="http://www.w3.org/2000/svg" fill="none" viewBox="0 0 32 32"><title>Tron</title><path fill="#FF060A" d="M30.75 9.65c-1.5-1.4-3.55-3.5-5.25-5l-.1-.1a1.9 1.9 0 0 0-.5-.3C20.75 3.5 1.75 0 1.35 0a.7.7 0 0 0-.25.1L1 .2C.89.31.8.45.75.6v.5C2.9 7 11.3 26.5 13 31.1c.1.3.3.85.65.9h.05c.2 0 1-1.05 1-1.05l16-19.45c.19-.23.36-.48.5-.75a1.2 1.2 0 0 0-.45-1.1Zm-12.3 2 6.15-5.1 3.65 3.35-9.8 1.75Zm-2.4-.3L5.4 2.65 22.6 5.8l-6.55 5.55Zm.95 2.3 10.9-1.75-12.5 15L17 13.65ZM4 3.5 15.15 13l-1.6 13.9L4 3.5Z"/></svg>