<svg xmlns="http://www.w3.org/2000/svg" fill="none" viewBox="0 0 32 32"><title>Wanchain</title><path fill="#0F68AA" d="M16.03 14.2 2.18 22.34v4.47l13.85-8.14 13.86 8.14v-4.47L16.03 14.2Z"/><path fill="#2FBDF4" d="m6.23 9.27 9.8-5.67 9.81 5.67 3.66-1.5L16.03 0 2.56 7.78l3.67 1.49Z"/><path fill="#0F68AA" d="M25.84 10.21v12.52l-1.46.85 3.1 1.81L29.89 24V8.57l-4.05 1.64ZM7.68 23.58l-1.47-.85V10.2L2.18 8.57V24l2.4 1.4 3.1-1.82Z"/><path fill="#2FBDF4" d="m23.52 24.07-7.49 4.33-7.48-4.33-3.1 1.82L16.03 32l10.59-6.1-3.1-1.83Z"/></svg>