<svg xmlns="http://www.w3.org/2000/svg" fill="none" viewBox="0 0 32 32"><title>Zeitgeist</title><g clip-path="url(#a)"><mask id="b" width="32" height="32" x="0" y="0" maskUnits="userSpaceOnUse" style="mask-type:luminance"><path fill="#fff" d="M31.11 0H0v31.48h31.11V0Z"/></mask><g mask="url(#b)"><path fill="#fff" d="M15.56 0c-3.65 0-7.2 1.29-10 3.67h20a15.41 15.41 0 0 0-10-3.67Zm0 31.48a15.5 15.5 0 0 0 9.92-3.6H5.64a15.42 15.42 0 0 0 9.92 3.59ZM22.99 8h6.13c-.5-.9-1.1-1.75-1.77-2.53H3.77a15.69 15.69 0 0 0-2.41 3.82h20.72l.9-1.29Zm-7.59 8.68H0c.08 1.3.31 2.57.7 3.82h13.26l.92-1.3h15.88c.19-.84.3-1.68.35-2.52h-15.7Zm3.47-3.09H31c-.12-.86-.3-1.7-.56-2.53H.68A15.48 15.48 0 0 0 0 14.88h17.97l.9-1.29ZM3.82 26.1H10l.9-1.29h17.4c.56-.8 1.04-1.64 1.45-2.53H1.38a15.95 15.95 0 0 0 2.43 3.82h.01Z"/></g></g><defs><clipPath id="a"><path fill="#fff" d="M0 0h32v32H0z"/></clipPath></defs></svg>