<svg xmlns="http://www.w3.org/2000/svg" fill="none" viewBox="0 0 1110 286"><path fill="url(#a)" stroke="#000" stroke-linejoin="round" stroke-width="4" d="M119 141 22.4 87.2 121 30l96.6 57.2L119 141Z"/><path fill="url(#b)" stroke="#000" stroke-linejoin="round" stroke-width="4" d="M120 256.5 119 141l98.6-53.8 1 112.6-98.6 56.7Z"/><path fill="url(#c)" stroke="#000" stroke-linejoin="round" stroke-width="4" d="M119 141 22.4 87.2 22 199.8l98.1 56.7-1-115.5Z"/><path fill="#fff" d="M304.7 135.5h43.1v16.1h-43.1v-16.1Zm1.5 36.9H355V189h-69.4V99.4h67.7V116h-47v56.4Zm152-53.3c5.5 0 10.4 1.1 14.5 3.3a23 23 0 0 1 10 10 35 35 0 0 1 3.7 17.2V189h-20v-36.4c0-5.5-1-9.6-3.4-12.2-2.3-2.7-5.5-4-9.7-4a15 15 0 0 0-7.8 2 13 13 0 0 0-5.4 6c-1.3 2.6-2 6-2 10V189h-19.9v-36.4c0-5.5-1.1-9.6-3.4-12.2-2.3-2.7-5.5-4-9.6-4a15 15 0 0 0-7.8 2 13 13 0 0 0-5.4 6c-1.3 2.6-2 6-2 10V189h-20v-68.9h19.2V139l-3.6-5.6a25 25 0 0 1 10-10.6c4.5-2.5 9.6-3.7 15.2-3.7a28 28 0 0 1 16.5 4.9c4.8 3.1 8 8 9.5 14.6l-7-2c2.2-5.3 6-9.6 11-12.8a33 33 0 0 1 17.5-4.7Zm86.8 71c-6 0-11.2-1.4-15.6-4a24.5 24.5 0 0 1-10-11.6c-2.3-5.3-3.4-12-3.4-20a48 48 0 0 1 3.6-19.9 26 26 0 0 1 25.4-15.5c6.5 0 12.3 1.5 17.5 4.4 5.2 2.9 9.3 7 12.2 12.3a36.1 36.1 0 0 1 4.6 18.8c0 7.1-1.5 13.4-4.6 18.7A32.4 32.4 0 0 1 545 190Zm-40.7-1.1V94h20v40l-1.3 20.4.4 20.5V189h-19Zm37.3-15.4a16.8 16.8 0 0 0 15-8.8c1.7-2.9 2.5-6.3 2.5-10.2 0-4-.8-7.5-2.4-10.3a16.5 16.5 0 0 0-15.1-8.8 16.5 16.5 0 0 0-15.2 8.8 21.1 21.1 0 0 0-2.3 10.3c0 3.9.7 7.3 2.3 10.2a16.5 16.5 0 0 0 15.2 8.8Zm51.1 15.4V94h20v95h-20Zm72.7 1c-7.9 0-14.8-1.5-20.7-4.6-6-3-10.5-7.2-13.7-12.5a34.7 34.7 0 0 1-4.9-18.3 33.9 33.9 0 0 1 18-30.8 36.3 36.3 0 0 1 18.7-4.7c6.8 0 12.8 1.5 18.2 4.4 5.5 2.8 9.8 6.9 13 12.3a36.6 36.6 0 0 1 4.3 24.4h-56v-11.6h45.5L680 152c0-3.6-.7-6.7-2.2-9.3a15.4 15.4 0 0 0-6-6.2 17 17 0 0 0-9-2.3c-3.4 0-6.4.8-9 2.3a15.2 15.2 0 0 0-6 6.3 19.4 19.4 0 0 0-2.2 9.5v3c0 3.8.8 7.1 2.4 10 1.7 2.8 4 5 7 6.5a25 25 0 0 0 11 2.2 23.3 23.3 0 0 0 17.3-6.7l10.6 11.6a31.6 31.6 0 0 1-11.9 8.3 45 45 0 0 1-16.5 2.8Zm134.8-70.9c5.4 0 10.2 1.1 14.4 3.3a23 23 0 0 1 10 10 35 35 0 0 1 3.7 17.2V189h-20v-36.4c0-5.5-1.1-9.6-3.4-12.2-2.3-2.7-5.6-4-9.7-4a15 15 0 0 0-7.8 2 13 13 0 0 0-5.4 6c-1.3 2.6-2 6-2 10V189h-20v-36.4c0-5.5-1-9.6-3.4-12.2-2.2-2.7-5.4-4-9.6-4a15 15 0 0 0-7.8 2 13 13 0 0 0-5.3 6c-1.3 2.6-2 6-2 10V189h-20v-68.9H731V139l-3.5-5.6c2.3-4.6 5.7-8.2 10-10.6 4.5-2.5 9.5-3.7 15.2-3.7a28 28 0 0 1 16.5 4.9c4.8 3.1 8 8 9.5 14.6l-7-2c2.2-5.3 5.9-9.6 11-12.8 5-3.1 10.9-4.7 17.5-4.7Zm88.3 69.9v-13.4l-1.3-3v-24c0-4.3-1.3-7.6-4-10-2.6-2.4-6.5-3.6-11.9-3.6a34.2 34.2 0 0 0-19.8 6.4l-7.2-14c3.8-2.6 8.3-4.7 13.6-6.1a60.7 60.7 0 0 1 16-2.2c10.6 0 18.7 2.5 24.5 7.4 5.8 5 8.7 12.7 8.7 23.2V189h-18.6Zm-21 1c-5.4 0-10-.9-13.9-2.7a21.4 21.4 0 0 1-8.8-7.5c-2-3.2-3-6.7-3-10.6 0-4.1 1-7.7 2.9-10.8 2-3 5.2-5.5 9.6-7.2a45 45 0 0 1 17-2.6h18.3v11.6h-16.1c-4.7 0-8 .8-9.7 2.3a7.4 7.4 0 0 0-2.6 5.8c0 2.5 1 4.6 3 6.1s4.8 2.2 8.3 2.2c3.3 0 6.3-.8 9-2.3 2.6-1.6 4.5-4 5.7-7l3 9.2a17.8 17.8 0 0 1-7.9 10 28.5 28.5 0 0 1-14.8 3.5Zm85.9 0c-8.1 0-14.4-2-19-6.1-4.5-4.2-6.8-10.4-6.8-18.6V105h20v60.2c0 2.9.8 5.1 2.3 6.7a8.5 8.5 0 0 0 6.3 2.4c3.1 0 5.8-.9 8-2.6l5.4 14a22 22 0 0 1-7.4 3.4c-2.8.7-5.8 1-8.8 1ZM917 137v-15.3h47.8V137H917Zm63.8 52v-68.9h20V189h-20Zm10-78.5c-3.6 0-6.6-1-9-3.2a10.4 10.4 0 0 1-3.4-7.9c0-3.2 1.2-5.8 3.5-8 2.3-2 5.3-3.1 9-3.1 3.6 0 6.6 1 8.9 3 2.3 2 3.4 4.6 3.4 7.7a11 11 0 0 1-3.4 8.3 12.4 12.4 0 0 1-9 3.2Zm61.8 79.5c-7.4 0-14-1.5-19.8-4.5A35 35 0 0 1 1019 173a34.7 34.7 0 0 1-4.9-18.3c0-7 1.6-13 4.9-18.3a34 34 0 0 1 13.7-12.6c5.8-3 12.4-4.6 19.8-4.6 7.3 0 13.6 1.5 19 4.6 5.3 3 9.3 7.3 11.9 13L1068 145a17 17 0 0 0-15.5-9.5c-3.4 0-6.5.8-9.2 2.3-2.8 1.5-5 3.7-6.5 6.5a21 21 0 0 0-2.3 10.3c0 4 .7 7.4 2.3 10.2a17.7 17.7 0 0 0 15.7 8.8c3.2 0 6-.7 8.7-2.1 2.7-1.6 5-4 6.8-7.3l15.5 8.4a28.2 28.2 0 0 1-12 13c-5.3 3-11.6 4.4-18.9 4.4Z"/><defs><linearGradient id="a" x1="120" x2="120" y1="30" y2="141" gradientUnits="userSpaceOnUse"><stop stop-color="#4ADE80"/><stop offset="1" stop-color="#829EE6"/></linearGradient><linearGradient id="b" x1="168.8" x2="168.8" y1="87.2" y2="256.5" gradientUnits="userSpaceOnUse"><stop stop-color="#4ADE80"/><stop offset="1" stop-color="#829EE6"/></linearGradient><linearGradient id="c" x1="71" x2="71" y1="87.2" y2="256.5" gradientUnits="userSpaceOnUse"><stop stop-color="#4ADE80"/><stop offset="1" stop-color="#829EE6"/></linearGradient></defs></svg>